{
  "accessors" : [ {
    "bufferView" : 0,
    "byteOffset" : 0,
    "componentType" : 5123,
    "count" : 360,
    "type" : "SCALAR",
    "max" : [ 359 ],
    "min" : [ 0 ]
  }, {
    "bufferView" : 1,
    "byteOffset" : 0,
    "componentType" : 5126,
    "count" : 360,
    "type" : "VEC3",
    "max" : [ 0.05, 0.05, 1.0 ],
    "min" : [ -0.05, -0.05, 0.0 ]
  }, {
    "bufferView" : 2,
    "byteOffset" : 0,
    "componentType" : 5123,
    "count" : 360,
    "type" : "SCALAR",
    "max" : [ 359 ],
    "min" : [ 0 ]
  }, {
    "bufferView" : 3,
    "byteOffset" : 0,
    "componentType" : 5126,
    "count" : 360,
    "type" : "VEC3",
    "max" : [ 0.05, 0.05, 0.8 ],
    "min" : [ -0.05, -0.05, 0.0 ]
  }, {
    "bufferView" : 4,
    "byteOffset" : 0,
    "componentType" : 5123,
    "count" : 360,
    "type" : "SCALAR",
    "max" : [ 359 ],
    "min" : [ 0 ]
  }, {
    "bufferView" : 5,
    "byteOffset" : 0,
    "componentType" : 5126,
    "count" : 360,
    "type" : "VEC3",
    "max" : [ 0.05, 0.05, 0.64 ],
    "min" : [ -0.05, -0.05, 0.0 ]
  }, {
    "bufferView" : 6,
    "byteOffset" : 0,
    "componentType" : 5123,
    "count" : 2400,
    "type" : "SCALAR",
    "max" : [ 2399 ],
    "min" : [ 0 ]
  }, {
    "bufferView" : 7,
    "byteOffset" : 0,
    "componentType" : 5126,
    "count" : 2400,
    "type" : "VEC3",
    "max" : [ 0.1, 0.1, 0.1 ],
    "min" : [ -0.1, -0.1, -0.1 ]
  }, {
    "bufferView" : 8,
    "byteOffset" : 0,
    "componentType" : 5123,
    "count" : 2400,
    "type" : "SCALAR",
    "max" : [ 2399 ],
    "min" : [ 0 ]
  }, {
    "bufferView" : 9,
    "byteOffset" : 0,
    "componentType" : 5126,
    "count" : 2400,
    "type" : "VEC3",
    "max" : [ 0.1, 0.1, 0.1 ],
    "min" : [ -0.1, -0.1, -0.1 ]
  }, {
    "bufferView" : 10,
    "byteOffset" : 0,
    "componentType" : 5123,
    "count" : 360,
    "type" : "SCALAR",
    "max" : [ 359 ],
    "min" : [ 0 ]
  }, {
    "bufferView" : 11,
    "byteOffset" : 0,
    "componentType" : 5126,
    "count" : 360,
    "type" : "VEC3",
    "max" : [ 0.05, 0.05, 0.64 ],
    "min" : [ -0.05, -0.05, 0.0 ]
  }, {
    "bufferView" : 12,
    "byteOffset" : 0,
    "componentType" : 5123,
    "count" : 2400,
    "type" : "SCALAR",
    "max" : [ 2399 ],
    "min" : [ 0 ]
  }, {
    "bufferView" : 13,
    "byteOffset" : 0,
    "componentType" : 5126,
    "count" : 2400,
    "type" : "VEC3",
    "max" : [ 0.1, 0.1, 0.1 ],
    "min" : [ -0.1, -0.1, -0.1 ]
  }, {
    "bufferView" : 14,
    "byteOffset" : 0,
    "componentType" : 5123,
    "count" : 2400,
    "type" : "SCALAR",
    "max" : [ 2399 ],
    "min" : [ 0 ]
  }, {
    "bufferView" : 15,
    "byteOffset" : 0,
    "componentType" : 5126,
    "count" : 2400,
    "type" : "VEC3",
    "max" : [ 0.1, 0.1, 0.1 ],
    "min" : [ -0.1, -0.1, -0.1 ]
  }, {
    "bufferView" : 16,
    "byteOffset" : 0,
    "componentType" : 5123,
    "count" : 360,
    "type" : "SCALAR",
    "max" : [ 359 ],
    "min" : [ 0 ]
  }, {
    "bufferView" : 17,
    "byteOffset" : 0,
    "componentType" : 5126,
    "count" : 360,
    "type" : "VEC3",
    "max" : [ 0.05, 0.05, 0.8 ],
    "min" : [ -0.05, -0.05, 0.0 ]
  }, {
    "bufferView" : 18,
    "byteOffset" : 0,
    "componentType" : 5123,
    "count" : 360,
    "type" : "SCALAR",
    "max" : [ 359 ],
    "min" : [ 0 ]
  }, {
    "bufferView" : 19,
    "byteOffset" : 0,
    "componentType" : 5126,
    "count" : 360,
    "type" : "VEC3",
    "max" : [ 0.05, 0.05, 0.64 ],
    "min" : [ -0.05, -0.05, 0.0 ]
  }, {
    "bufferView" : 20,
    "byteOffset" : 0,
    "componentType" : 5123,
    "count" : 2400,
    "type" : "SCALAR",
    "max" : [ 2399 ],
    "min" : [ 0 ]
  }, {
    "bufferView" : 21,
    "byteOffset" : 0,
    "componentType" : 5126,
    "count" : 2400,
    "type" : "VEC3",
    "max" : [ 0.1, 0.1, 0.1 ],
    "min" : [ -0.1, -0.1, -0.1 ]
  }, {
    "bufferView" : 22,
    "byteOffset" : 0,
    "componentType" : 5123,
    "count" : 2400,
    "type" : "SCALAR",
    "max" : [ 2399 ],
    "min" : [ 0 ]
  }, {
    "bufferView" : 23,
    "byteOffset" : 0,
    "componentType" : 5126,
    "count" : 2400,
    "type" : "VEC3",
    "max" : [ 0.1, 0.1, 0.1 ],
    "min" : [ -0.1, -0.1, -0.1 ]
  }, {
    "bufferView" : 24,
    "byteOffset" : 0,
    "componentType" : 5123,
    "count" : 360,
    "type" : "SCALAR",
    "max" : [ 359 ],
    "min" : [ 0 ]
  }, {
    "bufferView" : 25,
    "byteOffset" : 0,
    "componentType" : 5126,
    "count" : 360,
    "type" : "VEC3",
    "max" : [ 0.05, 0.05, 0.64 ],
    "min" : [ -0.05, -0.05, 0.0 ]
  }, {
    "bufferView" : 26,
    "byteOffset" : 0,
    "componentType" : 5123,
    "count" : 2400,
    "type" : "SCALAR",
    "max" : [ 2399 ],
    "min" : [ 0 ]
  }, {
    "bufferView" : 27,
    "byteOffset" : 0,
    "componentType" : 5126,
    "count" : 2400,
    "type" : "VEC3",
    "max" : [ 0.1, 0.1, 0.1 ],
    "min" : [ -0.1, -0.1, -0.1 ]
  }, {
    "bufferView" : 28,
    "byteOffset" : 0,
    "componentType" : 5123,
    "count" : 2400,
    "type" : "SCALAR",
    "max" : [ 2399 ],
    "min" : [ 0 ]
  }, {
    "bufferView" : 29,
    "byteOffset" : 0,
    "componentType" : 5126,
    "count" : 2400,
    "type" : "VEC3",
    "max" : [ 0.1, 0.1, 0.1 ],
    "min" : [ -0.1, -0.1, -0.1 ]
  } ],
  "asset" : {
    "generator" : "JglTF from https://github.com/javagl/JglTF",
    "version" : "2.0"
  },
  "buffers" : [ {
    "uri" : "data:application/gltf-buffer;base64,",
    "byteLength" : 304080
  } ],
  "bufferViews" : [ {
    "buffer" : 0,
    "byteOffset" : 0,
    "byteLength" : 720,
    "target" : 34963
  }, {
    "buffer" : 0,
    "byteOffset" : 720,
    "byteLength" : 4320,
    "target" : 34962
  }, {
    "buffer" : 0,
    "byteOffset" : 5040,
    "byteLength" : 720,
    "target" : 34963
  }, {
    "buffer" : 0,
    "byteOffset" : 5760,
    "byteLength" : 4320,
    "target" : 34962
  }, {
    "buffer" : 0,
    "byteOffset" : 10080,
    "byteLength" : 720,
    "target" : 34963
  }, {
    "buffer" : 0,
    "byteOffset" : 10800,
    "byteLength" : 4320,
    "target" : 34962
  }, {
    "buffer" : 0,
    "byteOffset" : 15120,
    "byteLength" : 4800,
    "target" : 34963
  }, {
    "buffer" : 0,
    "byteOffset" : 19920,
    "byteLength" : 28800,
    "target" : 34962
  }, {
    "buffer" : 0,
    "byteOffset" : 48720,
    "byteLength" : 4800,
    "target" : 34963
  }, {
    "buffer" : 0,
    "byteOffset" : 53520,
    "byteLength" : 28800,
    "target" : 34962
  }, {
    "buffer" : 0,
    "byteOffset" : 82320,
    "byteLength" : 720,
    "target" : 34963
  }, {
    "buffer" : 0,
    "byteOffset" : 83040,
    "byteLength" : 4320,
    "target" : 34962
  }, {
    "buffer" : 0,
    "byteOffset" : 87360,
    "byteLength" : 4800,
    "target" : 34963
  }, {
    "buffer" : 0,
    "byteOffset" : 92160,
    "byteLength" : 28800,
    "target" : 34962
  }, {
    "buffer" : 0,
    "byteOffset" : 120960,
    "byteLength" : 4800,
    "target" : 34963
  }, {
    "buffer" : 0,
    "byteOffset" : 125760,
    "byteLength" : 28800,
    "target" : 34962
  }, {
    "buffer" : 0,
    "byteOffset" : 154560,
    "byteLength" : 720,
    "target" : 34963
  }, {
    "buffer" : 0,
    "byteOffset" : 155280,
    "byteLength" : 4320,
    "target" : 34962
  }, {
    "buffer" : 0,
    "byteOffset" : 159600,
    "byteLength" : 720,
    "target" : 34963
  }, {
    "buffer" : 0,
    "byteOffset" : 160320,
    "byteLength" : 4320,
    "target" : 34962
  }, {
    "buffer" : 0,
    "byteOffset" : 164640,
    "byteLength" : 4800,
    "target" : 34963
  }, {
    "buffer" : 0,
    "byteOffset" : 169440,
    "byteLength" : 28800,
    "target" : 34962
  }, {
    "buffer" : 0,
    "byteOffset" : 198240,
    "byteLength" : 4800,
    "target" : 34963
  }, {
    "buffer" : 0,
    "byteOffset" : 203040,
    "byteLength" : 28800,
    "target" : 34962
  }, {
    "buffer" : 0,
    "byteOffset" : 231840,
    "byteLength" : 720,
    "target" : 34963
  }, {
    "buffer" : 0,
    "byteOffset" : 232560,
    "byteLength" : 4320,
    "target" : 34962
  }, {
    "buffer" : 0,
    "byteOffset" : 236880,
    "byteLength" : 4800,
    "target" : 34963
  }, {
    "buffer" : 0,
    "byteOffset" : 241680,
    "byteLength" : 28800,
    "target" : 34962
  }, {
    "buffer" : 0,
    "byteOffset" : 270480,
    "byteLength" : 4800,
    "target" : 34963
  }, {
    "buffer" : 0,
    "byteOffset" : 275280,
    "byteLength" : 28800,
    "target" : 34962
  } ],
  "meshes" : [ {
    "primitives" : [ {
      "attributes" : {
        "POSITION" : 1
      },
      "indices" : 0,
      "mode" : 4
    } ]
  }, {
    "primitives" : [ {
      "attributes" : {
        "POSITION" : 3
      },
      "indices" : 2,
      "mode" : 4
    } ]
  }, {
    "primitives" : [ {
      "attributes" : {
        "POSITION" : 5
      },
      "indices" : 4,
      "mode" : 4
    } ]
  }, {
    "primitives" : [ {
      "attributes" : {
        "POSITION" : 7
      },
      "indices" : 6,
      "mode" : 4
    } ]
  }, {
    "primitives" : [ {
      "attributes" : {
        "POSITION" : 9
      },
      "indices" : 8,
      "mode" : 4
    } ]
  }, {
    "primitives" : [ {
      "attributes" : {
        "POSITION" : 11
      },
      "indices" : 10,
      "mode" : 4
    } ]
  }, {
    "primitives" : [ {
      "attributes" : {
        "POSITION" : 13
      },
      "indices" : 12,
      "mode" : 4
    } ]
  }, {
    "primitives" : [ {
      "attributes" : {
        "POSITION" : 15
      },
      "indices" : 14,
      "mode" : 4
    } ]
  }, {
    "primitives" : [ {
      "attributes" : {
        "POSITION" : 17
      },
      "indices" : 16,
      "mode" : 4
    } ]
  }, {
    "primitives" : [ {
      "attributes" : {
        "POSITION" : 19
      },
      "indices" : 18,
      "mode" : 4
    } ]
  }, {
    "primitives" : [ {
      "attributes" : {
        "POSITION" : 21
      },
      "indices" : 20,
      "mode" : 4
    } ]
  }, {
    "primitives" : [ {
      "attributes" : {
        "POSITION" : 23
      },
      "indices" : 22,
      "mode" : 4
    } ]
  }, {
    "primitives" : [ {
      "attributes" : {
        "POSITION" : 25
      },
      "indices" : 24,
      "mode" : 4
    } ]
  }, {
    "primitives" : [ {
      "attributes" : {
        "POSITION" : 27
      },
      "indices" : 26,
      "mode" : 4
    } ]
  }, {
    "primitives" : [ {
      "attributes" : {
        "POSITION" : 29
      },
      "indices" : 28,
      "mode" : 4
    } ]
  } ],
  "nodes" : [ {
    "children" : [ 1 ]
  }, {
    "name" : "0",
    "children" : [ 2 ]
  }, {
    "name" : "509",
    "children" : [ 3, 6 ]
  }, {
    "name" : "511",
    "children" : [ 4 ],
    "matrix" : [ 1.0, 0.0, 0.0, 0.0, 0.0, 1.0, 0.0, 0.0, 0.0, 0.0, 1.0, 0.0, 0.0, 0.0, 10.0, 1.0 ]
  }, {
    "name" : "512",
    "children" : [ 5 ],
    "matrix" : [ 1.0, 0.0, 0.0, 0.0, 0.0, -1.0, 1.2246469E-16, 0.0, -0.0, -1.2246469E-16, -1.0, 0.0, 0.0, 0.0, 0.0, 1.0 ]
  }, {
    "name" : "513",
    "matrix" : [ 1.0, 0.0, 0.0, 0.0, 0.0, 1.0, 0.0, 0.0, 0.0, 0.0, 1.0, 0.0, 0.0, 0.0, 0.0, 1.0 ]
  }, {
    "name" : "515",
    "children" : [ 7 ],
    "mesh" : 0
  }, {
    "name" : "515_b",
    "children" : [ 8, 32 ],
    "translation" : [ 0.0, 0.0, 1.0 ]
  }, {
    "name" : "516",
    "children" : [ 9 ],
    "matrix" : [ 0.8660254, 0.0, -0.5, 0.0, 0.0, 1.0, 0.0, 0.0, 0.5, 0.0, 0.8660254, 0.0, 0.0, 0.0, 0.0, 1.0 ]
  }, {
    "name" : "517",
    "children" : [ 10 ],
    "matrix" : [ 6.123234E-17, 1.0, 0.0, 0.0, -1.0, 6.123234E-17, 0.0, 0.0, 0.0, 0.0, 1.0, 0.0, 0.0, 0.0, 0.0, 1.0 ]
  }, {
    "name" : "522",
    "children" : [ 11 ],
    "mesh" : 1
  }, {
    "name" : "522_b",
    "children" : [ 12, 22 ],
    "translation" : [ 0.0, 0.0, 0.8 ]
  }, {
    "name" : "523",
    "children" : [ 13 ],
    "matrix" : [ 0.8660254, 0.0, -0.5, 0.0, 0.0, 1.0, 0.0, 0.0, 0.5, 0.0, 0.8660254, 0.0, 0.0, 0.0, 0.0, 1.0 ]
  }, {
    "name" : "524",
    "children" : [ 14 ],
    "matrix" : [ 6.123234E-17, 1.0, 0.0, 0.0, -1.0, 6.123234E-17, 0.0, 0.0, 0.0, 0.0, 1.0, 0.0, 0.0, 0.0, 0.0, 1.0 ]
  }, {
    "name" : "536",
    "children" : [ 15 ],
    "mesh" : 2
  }, {
    "name" : "536_b",
    "children" : [ 16, 19 ],
    "translation" : [ 0.0, 0.0, 0.64 ]
  }, {
    "name" : "537",
    "children" : [ 17 ],
    "matrix" : [ 0.8660254, 0.0, -0.5, 0.0, 0.0, 1.0, 0.0, 0.0, 0.5, 0.0, 0.8660254, 0.0, 0.0, 0.0, 0.0, 1.0 ]
  }, {
    "name" : "538",
    "children" : [ 18 ],
    "matrix" : [ 6.123234E-17, 1.0, 0.0, 0.0, -1.0, 6.123234E-17, 0.0, 0.0, 0.0, 0.0, 1.0, 0.0, 0.0, 0.0, 0.0, 1.0 ]
  }, {
    "name" : "539",
    "mesh" : 3
  }, {
    "name" : "540",
    "children" : [ 20 ],
    "matrix" : [ 0.8660254, 0.0, 0.5, 0.0, 0.0, 1.0, 0.0, 0.0, -0.5, 0.0, 0.8660254, 0.0, 0.0, 0.0, 0.0, 1.0 ]
  }, {
    "name" : "541",
    "children" : [ 21 ],
    "matrix" : [ 6.123234E-17, 1.0, 0.0, 0.0, -1.0, 6.123234E-17, 0.0, 0.0, 0.0, 0.0, 1.0, 0.0, 0.0, 0.0, 0.0, 1.0 ]
  }, {
    "name" : "542",
    "mesh" : 4
  }, {
    "name" : "526",
    "children" : [ 23 ],
    "matrix" : [ 0.8660254, 0.0, 0.5, 0.0, 0.0, 1.0, 0.0, 0.0, -0.5, 0.0, 0.8660254, 0.0, 0.0, 0.0, 0.0, 1.0 ]
  }, {
    "name" : "527",
    "children" : [ 24 ],
    "matrix" : [ 6.123234E-17, 1.0, 0.0, 0.0, -1.0, 6.123234E-17, 0.0, 0.0, 0.0, 0.0, 1.0, 0.0, 0.0, 0.0, 0.0, 1.0 ]
  }, {
    "name" : "543",
    "children" : [ 25 ],
    "mesh" : 5
  }, {
    "name" : "543_b",
    "children" : [ 26, 29 ],
    "translation" : [ 0.0, 0.0, 0.64 ]
  }, {
    "name" : "544",
    "children" : [ 27 ],
    "matrix" : [ 0.8660254, 0.0, -0.5, 0.0, 0.0, 1.0, 0.0, 0.0, 0.5, 0.0, 0.8660254, 0.0, 0.0, 0.0, 0.0, 1.0 ]
  }, {
    "name" : "545",
    "children" : [ 28 ],
    "matrix" : [ 6.123234E-17, 1.0, 0.0, 0.0, -1.0, 6.123234E-17, 0.0, 0.0, 0.0, 0.0, 1.0, 0.0, 0.0, 0.0, 0.0, 1.0 ]
  }, {
    "name" : "546",
    "mesh" : 6
  }, {
    "name" : "547",
    "children" : [ 30 ],
    "matrix" : [ 0.8660254, 0.0, 0.5, 0.0, 0.0, 1.0, 0.0, 0.0, -0.5, 0.0, 0.8660254, 0.0, 0.0, 0.0, 0.0, 1.0 ]
  }, {
    "name" : "548",
    "children" : [ 31 ],
    "matrix" : [ 6.123234E-17, 1.0, 0.0, 0.0, -1.0, 6.123234E-17, 0.0, 0.0, 0.0, 0.0, 1.0, 0.0, 0.0, 0.0, 0.0, 1.0 ]
  }, {
    "name" : "549",
    "mesh" : 7
  }, {
    "name" : "519",
    "children" : [ 33 ],
    "matrix" : [ 0.8660254, 0.0, 0.5, 0.0, 0.0, 1.0, 0.0, 0.0, -0.5, 0.0, 0.8660254, 0.0, 0.0, 0.0, 0.0, 1.0 ]
  }, {
    "name" : "520",
    "children" : [ 34 ],
    "matrix" : [ 6.123234E-17, 1.0, 0.0, 0.0, -1.0, 6.123234E-17, 0.0, 0.0, 0.0, 0.0, 1.0, 0.0, 0.0, 0.0, 0.0, 1.0 ]
  }, {
    "name" : "529",
    "children" : [ 35 ],
    "mesh" : 8
  }, {
    "name" : "529_b",
    "children" : [ 36, 46 ],
    "translation" : [ 0.0, 0.0, 0.8 ]
  }, {
    "name" : "530",
    "children" : [ 37 ],
    "matrix" : [ 0.8660254, 0.0, -0.5, 0.0, 0.0, 1.0, 0.0, 0.0, 0.5, 0.0, 0.8660254, 0.0, 0.0, 0.0, 0.0, 1.0 ]
  }, {
    "name" : "531",
    "children" : [ 38 ],
    "matrix" : [ 6.123234E-17, 1.0, 0.0, 0.0, -1.0, 6.123234E-17, 0.0, 0.0, 0.0, 0.0, 1.0, 0.0, 0.0, 0.0, 0.0, 1.0 ]
  }, {
    "name" : "550",
    "children" : [ 39 ],
    "mesh" : 9
  }, {
    "name" : "550_b",
    "children" : [ 40, 43 ],
    "translation" : [ 0.0, 0.0, 0.64 ]
  }, {
    "name" : "551",
    "children" : [ 41 ],
    "matrix" : [ 0.8660254, 0.0, -0.5, 0.0, 0.0, 1.0, 0.0, 0.0, 0.5, 0.0, 0.8660254, 0.0, 0.0, 0.0, 0.0, 1.0 ]
  }, {
    "name" : "552",
    "children" : [ 42 ],
    "matrix" : [ 6.123234E-17, 1.0, 0.0, 0.0, -1.0, 6.123234E-17, 0.0, 0.0, 0.0, 0.0, 1.0, 0.0, 0.0, 0.0, 0.0, 1.0 ]
  }, {
    "name" : "553",
    "mesh" : 10
  }, {
    "name" : "554",
    "children" : [ 44 ],
    "matrix" : [ 0.8660254, 0.0, 0.5, 0.0, 0.0, 1.0, 0.0, 0.0, -0.5, 0.0, 0.8660254, 0.0, 0.0, 0.0, 0.0, 1.0 ]
  }, {
    "name" : "555",
    "children" : [ 45 ],
    "matrix" : [ 6.123234E-17, 1.0, 0.0, 0.0, -1.0, 6.123234E-17, 0.0, 0.0, 0.0, 0.0, 1.0, 0.0, 0.0, 0.0, 0.0, 1.0 ]
  }, {
    "name" : "556",
    "mesh" : 11
  }, {
    "name" : "533",
    "children" : [ 47 ],
    "matrix" : [ 0.8660254, 0.0, 0.5, 0.0, 0.0, 1.0, 0.0, 0.0, -0.5, 0.0, 0.8660254, 0.0, 0.0, 0.0, 0.0, 1.0 ]
  }, {
    "name" : "534",
    "children" : [ 48 ],
    "matrix" : [ 6.123234E-17, 1.0, 0.0, 0.0, -1.0, 6.123234E-17, 0.0, 0.0, 0.0, 0.0, 1.0, 0.0, 0.0, 0.0, 0.0, 1.0 ]
  }, {
    "name" : "557",
    "children" : [ 49 ],
    "mesh" : 12
  }, {
    "name" : "557_b",
    "children" : [ 50, 53 ],
    "translation" : [ 0.0, 0.0, 0.64 ]
  }, {
    "name" : "558",
    "children" : [ 51 ],
    "matrix" : [ 0.8660254, 0.0, -0.5, 0.0, 0.0, 1.0, 0.0, 0.0, 0.5, 0.0, 0.8660254, 0.0, 0.0, 0.0, 0.0, 1.0 ]
  }, {
    "name" : "559",
    "children" : [ 52 ],
    "matrix" : [ 6.123234E-17, 1.0, 0.0, 0.0, -1.0, 6.123234E-17, 0.0, 0.0, 0.0, 0.0, 1.0, 0.0, 0.0, 0.0, 0.0, 1.0 ]
  }, {
    "name" : "560",
    "mesh" : 13
  }, {
    "name" : "561",
    "children" : [ 54 ],
    "matrix" : [ 0.8660254, 0.0, 0.5, 0.0, 0.0, 1.0, 0.0, 0.0, -0.5, 0.0, 0.8660254, 0.0, 0.0, 0.0, 0.0, 1.0 ]
  }, {
    "name" : "562",
    "children" : [ 55 ],
    "matrix" : [ 6.123234E-17, 1.0, 0.0, 0.0, -1.0, 6.123234E-17, 0.0, 0.0, 0.0, 0.0, 1.0, 0.0, 0.0, 0.0, 0.0, 1.0 ]
  }, {
    "name" : "563",
    "mesh" : 14
  } ],
  "scene" : 0,
  "scenes" : [ {
    "nodes" : [ 0 ]
  } ]
}