{
  "accessors": [
    {
      "bufferView": 0,
      "byteOffset": 0,
      "componentType": 5121,
      "normalized": false,
      "count": 54,
      "type": "SCALAR",
      "max": [
        15
      ],
      "min": [
        0
      ]
    },
    {
      "bufferView": 1,
      "byteOffset": 0,
      "componentType": 5126,
      "normalized": false,
      "count": 16,
      "type": "VEC3",
      "max": [
        1.705475926399231,
        0.3967536687850952,
        18.038793563842773
      ],
      "min": [
        1.3277667760849,
        0.1952069252729416,
        17.370840072631836
      ]
    }
  ],
  "asset": {
    "generator": "pygltflib@v1.16.2",
    "version": "2.0"
  },
  "bufferViews": [
    {
      "buffer": 0,
      "byteOffset": 0,
      "byteLength": 54,
      "target": 34963
    },
    {
      "buffer": 0,
      "byteOffset": 54,
      "byteLength": 192,
      "target": 34962
    }
  ],
  "buffers": [
    {
      "uri": "plant1.bin",
      "byteLength": 246
    }
  ],
  "meshes": [
    {
      "primitives": [
        {
          "attributes": {
            "POSITION": 1
          },
          "indices": 0,
          "mode": 4
        }
      ]
    }
  ],
  "nodes": [
    {
      "name" : "1",
      "mesh": 0
    }
  ],
  "scene": 0,
  "scenes": [
    {
      "nodes": [
        0
      ]
    }
  ]
}